<?xml version="1.0" encoding="UTF-8"?> <svg xmlns="http://www.w3.org/2000/svg" width="90" height="26" viewBox="0 0 90 26" fill="none"><path fill-rule="evenodd" clip-rule="evenodd" d="M34.8794 15.2097L30.5745 15.0114C30.4754 15.5921 30.3054 16.0311 30.0647 16.3427C29.9089 16.5976 29.6257 16.8526 29.2009 17.0933C28.7902 17.3341 28.2804 17.4616 27.6856 17.4899C26.9493 17.4899 26.3404 17.2774 25.8164 16.8384C26.4112 18.3538 27.3316 19.7276 28.4787 20.8748C28.9318 20.8323 29.3566 20.7757 29.739 20.6907C30.3762 20.5491 30.9143 20.3791 31.325 20.195C31.8631 19.9401 32.4154 19.5293 32.996 18.977C33.5766 18.4246 34.0581 17.7023 34.4404 16.7817C34.5396 16.4985 34.6245 16.2436 34.6953 16.0028C34.7944 15.7762 34.8511 15.5071 34.8794 15.2097Z" fill="#F6C78E"></path><path fill-rule="evenodd" clip-rule="evenodd" d="M24.6961 11.7829C24.781 11.2731 24.9651 10.7774 25.2625 10.3383C25.6024 8.63877 26.3246 7.0667 27.3442 5.6929C26.3812 5.72123 25.5316 5.87702 24.781 6.13195C23.9172 6.42937 23.2092 6.81176 22.6569 7.2933C22.1046 7.76067 21.6656 8.27054 21.3399 8.7804C21.0142 9.30442 20.7593 9.81429 20.5894 10.31C20.3911 10.8907 20.2637 11.4289 20.1929 11.9387C20.1221 12.4486 20.0938 12.9159 20.0938 13.3408C20.0938 13.6949 20.1079 14.0915 20.1504 14.5305C20.1929 14.9696 20.292 15.4794 20.4619 16.0459C20.6319 16.6266 20.9009 17.2073 21.2691 17.8021C21.6373 18.397 22.1188 18.921 22.7135 19.3884C23.2516 19.8132 23.903 20.1673 24.6819 20.4647C25.4608 20.748 26.4237 20.9038 27.5707 20.918C27.9106 20.918 28.2221 20.9038 28.5195 20.8755C27.3725 19.7141 26.452 18.3545 25.8573 16.8391C25.7157 16.7257 25.5882 16.5841 25.4608 16.4425C24.8802 15.7485 24.5969 14.6863 24.5686 13.2559C24.5545 12.831 24.5969 12.3353 24.6961 11.7829Z" fill="#F9A64A"></path><path fill-rule="evenodd" clip-rule="evenodd" d="M30.4993 11.2249L34.7759 11.2532C34.6768 10.0069 34.252 8.91636 33.5014 7.99578C32.7509 7.06103 31.7455 6.40954 30.4993 6.01298C30.1595 5.89968 29.7771 5.8147 29.3523 5.74389C28.9275 5.67307 28.4035 5.64474 27.7946 5.64474C27.6388 5.64474 27.483 5.64475 27.3414 5.65891C26.3218 7.0327 25.5996 8.60478 25.2598 10.3043C25.2881 10.2618 25.3022 10.2335 25.3306 10.191C25.543 9.87943 25.8545 9.59618 26.251 9.34125C26.6475 9.08632 27.1573 8.95885 27.7946 8.95885C28.4318 8.95885 28.9416 9.10048 29.3523 9.38373C29.7629 9.66699 30.0462 9.96441 30.2019 10.3043C30.3011 10.4601 30.3719 10.6301 30.4285 10.8142C30.4852 11.0266 30.4993 11.1541 30.4993 11.2249Z" fill="#ED9D34"></path><path fill-rule="evenodd" clip-rule="evenodd" d="M0 20.4985H5.31036L6.55652 16.9437H13.4671L14.6849 20.4985H20.0802L12.6599 0.670563H7.40618L0 20.4985ZM9.99763 6.16575H10.0543L12.2492 13.1055H7.74604L9.99763 6.16575Z" fill="white"></path><path fill-rule="evenodd" clip-rule="evenodd" d="M50.5995 11.3529C50.5003 10.4039 50.2454 9.5825 49.8489 8.87436C49.4383 8.16622 48.9143 7.57138 48.2629 7.08984C47.6257 6.6083 46.8893 6.25423 46.068 6.01346C45.2466 5.7727 44.397 5.65939 43.4907 5.65939C42.3295 5.65939 41.2815 5.85767 40.3469 6.24007C39.4265 6.62247 38.6193 7.16066 37.9679 7.8688C37.3165 8.56278 36.8067 9.39838 36.4527 10.3615C36.0986 11.3245 35.9287 12.3726 35.9287 13.5198C35.9287 14.6386 36.127 15.6442 36.4951 16.5506C36.8633 17.457 37.4014 18.236 38.0812 18.8875C38.7609 19.539 39.5539 20.0347 40.4744 20.3887C41.3948 20.7428 42.4003 20.9128 43.4765 20.9128C44.4394 20.9128 45.3457 20.7853 46.1812 20.5162C47.0167 20.2471 47.7531 19.8506 48.3903 19.3407C49.0276 18.8167 49.5515 18.1935 49.9481 17.4287C50.3446 16.6781 50.6136 15.8141 50.7269 14.8369H46.1388C46.0255 15.6159 45.7706 16.2249 45.3316 16.6498C44.9068 17.0746 44.2695 17.3012 43.4482 17.3012C42.9525 17.3012 42.5277 17.1879 42.1595 16.9755C41.8055 16.7631 41.5223 16.4798 41.2957 16.1116C41.0691 15.7575 40.9134 15.3468 40.8001 14.8936C40.6868 14.4545 40.6443 13.9871 40.6443 13.5198C40.6443 13.0099 40.6726 12.5142 40.7576 12.0043C40.8284 11.5086 40.97 11.0554 41.1824 10.6447C41.3948 10.234 41.7064 9.89408 42.1029 9.65332C42.5136 9.39838 43.0375 9.27092 43.6889 9.27092C44.0854 9.27092 44.4678 9.37006 44.8218 9.54001C45.1758 9.70996 45.4449 9.9649 45.6573 10.2765C45.8697 10.5881 45.983 10.9421 45.9971 11.3529H50.5995Z" fill="white"></path><path fill-rule="evenodd" clip-rule="evenodd" d="M67.1044 14.4404C67.161 13.2082 67.0336 12.061 66.7504 10.9988C66.453 9.93657 65.9998 9.01599 65.3626 8.2087C64.7253 7.40142 63.9323 6.79242 62.9694 6.33921C62.0064 5.886 60.8736 5.65939 59.5849 5.65939C58.5087 5.65939 57.5174 5.85767 56.5828 6.22591C55.6482 6.59414 54.8268 7.11817 54.1046 7.79798C53.3966 8.4778 52.8301 9.27092 52.4195 10.2057C52.023 11.1262 51.8105 12.146 51.8105 13.2507C51.8105 14.4545 52.0088 15.5309 52.3911 16.494C52.7593 17.4429 53.2974 18.2502 54.0055 18.9016C54.6994 19.5673 55.5349 20.063 56.4978 20.4029C57.4608 20.7428 58.537 20.9128 59.7124 20.9269C60.5195 20.9269 61.3125 20.8278 62.0631 20.6437C62.8136 20.4596 63.5217 20.1763 64.1589 19.7797C64.7961 19.3973 65.3626 18.9016 65.8299 18.2926C66.2972 17.6978 66.6512 16.9755 66.8778 16.1399H62.4596C62.3038 16.494 62.0914 16.7914 61.8223 17.0321C61.5391 17.2588 61.2276 17.4429 60.8736 17.5562C60.5195 17.6695 60.1514 17.7261 59.769 17.7261C59.1034 17.7261 58.537 17.5845 58.0697 17.3154C57.6024 17.0463 57.2342 16.6781 56.9793 16.1824C56.7244 15.6867 56.5828 15.106 56.5545 14.4404H67.1044ZM56.512 11.7919C56.6111 11.1971 56.7952 10.673 57.0643 10.234C57.3333 9.79494 57.6732 9.45503 58.098 9.21427C58.5087 8.9735 59.0043 8.86019 59.5566 8.84603C60.0947 8.84603 60.562 8.98766 60.9727 9.24259C61.3834 9.49752 61.7091 9.85159 61.9498 10.3048C62.1905 10.7439 62.3321 11.2395 62.3605 11.7919H56.512Z" fill="white"></path><path d="M73.7137 0.670563H68.998V20.4985H73.7137V0.670563Z" fill="white"></path><path fill-rule="evenodd" clip-rule="evenodd" d="M90.0004 6.08212H85.1715L82.4384 15.4721H82.3818L79.6629 6.08212H74.6641L78.3884 16.1094C78.4592 16.3077 78.5583 16.5768 78.6999 16.9167C78.8274 17.2566 78.9548 17.6107 79.0964 17.9931C79.2239 18.3755 79.3513 18.7295 79.4363 19.0695C79.5354 19.4094 79.5779 19.6784 79.5779 19.8767C79.5779 20.2166 79.493 20.4999 79.323 20.7407C79.1672 20.9814 78.9407 21.1655 78.6575 21.293C78.3742 21.4205 78.0485 21.4913 77.6804 21.4913H76.0377V25.3294H78.2609C79.054 25.3294 79.762 25.3011 80.3851 25.2161C81.0082 25.1311 81.5604 24.9754 82.0561 24.7346C82.5376 24.4938 82.9624 24.1397 83.3306 23.6582C83.6988 23.1767 84.0103 22.5535 84.2935 21.7604L90.0004 6.08212Z" fill="white"></path></svg> 